/* XPM */
static char *_552786249768[] = {
/* columns rows colors chars-per-pixel */
"32 32 236 2 ",
"   c #5F3DFB",
".  c #6936FA",
"X  c #633EFC",
"o  c #6A3BFB",
"O  c #693CFB",
"+  c #683FFC",
"@  c #713DFA",
"#  c #763EFA",
"$  c #4947FD",
"%  c #484AFD",
"&  c #4D49FD",
"*  c #5243FB",
"=  c #5644FB",
"-  c #5447FB",
";  c #5547FB",
":  c #5E41FB",
">  c #5D42FB",
",  c #5944FB",
"<  c #5946FB",
"1  c #5947FB",
"2  c #5B47FB",
"3  c #5D46FB",
"4  c #5B42FC",
"5  c #5C44FC",
"6  c #5C47FC",
"7  c #5E46FC",
"8  c #5348FB",
"9  c #5748FB",
"0  c #5048FC",
"q  c #5249FC",
"w  c #524DFD",
"e  c #594EFB",
"r  c #5C4DFB",
"t  c #4953FC",
"y  c #4E53FD",
"u  c #5151FD",
"i  c #5251FD",
"p  c #5650FD",
"a  c #5056FE",
"s  c #545EFD",
"d  c #6743FB",
"f  c #6042FC",
"g  c #6043FC",
"h  c #6343FC",
"j  c #6741FC",
"k  c #6442FC",
"l  c #6045FC",
"z  c #6344FC",
"x  c #6346FC",
"c  c #6444FC",
"v  c #6B41FB",
"b  c #6E40FB",
"n  c #6A49FC",
"m  c #7941FA",
"M  c #734CFB",
"N  c #6652FB",
"B  c #6055FC",
"V  c #6B57FC",
"C  c #7951FB",
"Z  c #5B66FD",
"A  c #5B77FE",
"S  c #5178FF",
"D  c #5A79FE",
"F  c #5E78FE",
"G  c #5F78FE",
"H  c #5A7CFE",
"J  c #6B63FD",
"K  c #7863FC",
"L  c #7F61FC",
"P  c #746BFC",
"I  c #716FFD",
"U  c #746FFC",
"Y  c #6373FD",
"T  c #6175FE",
"R  c #6375FE",
"E  c #6177FE",
"W  c #6276FE",
"Q  c #6575FE",
"!  c #6871FD",
"~  c #6873FD",
"^  c #6B72FD",
"/  c #6D70FD",
"(  c #6F70FD",
")  c #6E71FE",
"_  c #6E72FE",
"`  c #6874FD",
"'  c #6875FD",
"]  c #6A74FE",
"[  c #6A7FFE",
"{  c #6F7DFE",
"}  c #7774FD",
"|  c #727DFE",
" . c #882DFA",
".. c #8B2EFA",
"X. c #922BF9",
"o. c #9628F8",
"O. c #9729F8",
"+. c #942AF9",
"@. c #962BF9",
"#. c #902DFA",
"$. c #922DFA",
"%. c #912FFA",
"&. c #952CF9",
"*. c #982AF8",
"=. c #982BF8",
"-. c #982CF8",
";. c #992DF8",
":. c #8231FA",
">. c #8530FA",
",. c #8A30FA",
"<. c #8D31FA",
"1. c #8A38FA",
"2. c #8F3DFB",
"3. c #9031FA",
"4. c #9033FA",
"5. c #9A30F8",
"6. c #9D39F9",
"7. c #993DFA",
"8. c #A23DF9",
"9. c #A13FF9",
"0. c #A23EF9",
"q. c #8942FB",
"w. c #8D42FB",
"e. c #8847FB",
"r. c #9547FA",
"t. c #8253FB",
"y. c #8056FB",
"u. c #8F5DFB",
"i. c #8C5EFB",
"p. c #895FFC",
"a. c #9352FB",
"s. c #9E53FC",
"d. c #915CFB",
"f. c #925EFB",
"g. c #9B59FA",
"h. c #9C5CFB",
"j. c #9C5EFB",
"k. c #9F5FFA",
"l. c #985FFC",
"z. c #A34AFA",
"x. c #A056FA",
"c. c #A55BFA",
"v. c #A15DFA",
"b. c #A35CFA",
"n. c #8362FB",
"m. c #8661FC",
"M. c #8F60FC",
"N. c #8964FC",
"B. c #8D66FC",
"V. c #836BFD",
"C. c #886BFC",
"Z. c #9460FB",
"A. c #9263FC",
"S. c #9660FC",
"D. c #9462FC",
"F. c #9563FC",
"G. c #9065FC",
"H. c #9A64FB",
"J. c #9A60FC",
"K. c #946DFC",
"L. c #877BFD",
"P. c #9874FC",
"I. c #A46DFB",
"U. c #A47AFC",
"Y. c #B471FB",
"T. c #BE7FFB",
"R. c #5B85FF",
"E. c #6684FE",
"W. c #6988FE",
"Q. c #698CFF",
"!. c #7686FE",
"~. c #7A99FF",
"^. c #8980FC",
"/. c #8589FE",
"(. c #8B8BFE",
"). c #9C83FC",
"_. c #9D88FC",
"`. c #8092FE",
"'. c #8A96FE",
"]. c #8D94FE",
"[. c #8F97FE",
"{. c #839BFE",
"}. c #859BFE",
"|. c #879AFE",
" X c #829DFE",
".X c #879DFE",
"XX c #869FFE",
"oX c #8999FE",
"OX c #8B98FE",
"+X c #8A99FE",
"@X c #8D98FE",
"#X c #8F99FE",
"$X c #8D9AFE",
"%X c #899FFE",
"&X c #8B9EFE",
"*X c #8F9DFE",
"=X c #9197FE",
"-X c #9697FE",
";X c #9A96FD",
":X c #9997FE",
">X c #9099FE",
",X c #9598FE",
"<X c #969BFE",
"1X c #919DFE",
"2X c #A881FD",
"3X c #A78CFD",
"4X c #AD89FD",
"5X c #AF88FC",
"6X c #AF8AFC",
"7X c #A98DFD",
"8X c #AA8CFD",
"9X c #AE8CFD",
"0X c #AF8FFD",
"qX c #B187FB",
"wX c #B287FB",
"eX c #B586FB",
"rX c #B687FB",
"tX c #B481FC",
"yX c #B785FC",
"uX c #B487FC",
"iX c #B587FC",
"pX c #B786FC",
"aX c #B884FB",
"sX c #B984FC",
"dX c #BB84FC",
"fX c #BE84FC",
"gX c #BC86FC",
"hX c #B38AFB",
"jX c #B189FC",
"kX c #B38BFC",
"lX c #B08DFD",
"zX c #AB93FD",
"xX c #83A0FE",
"cX c #82A1FF",
"vX c #85A0FE",
"bX c None",
/* pixels */
"bXbXbXbXbXbXbXbXbXbXbXbXbXbXbXbXbXbXbXbXbXbXbXbXbXbXbXbXbXbXbXbX",
"bXbXbXbXbXbXbXbXbXbXbXbXbXbXbXbXbXbXbXbXbXbXbXbXbXbXbXbXbXbXbXbX",
"bXbXbXbXbXbXbXbXbXbXbXbXbXbXbXbXbXbXbXbXbXbXbXbXbXbXbXbXbXbXbXbX",
"bXbXbXbXbXbXbXbXbXbXbXbXbXbXbXbXbXbXbXbXbXbXbXbXbXbXbXbXbXbXbXbX",
"bXbXbXbXbXbXbXbXbXbXbXbXbXbXbXbXbXbXbXbXbXbXbXbXbXbXbXbXbXbXbXbX",
"bXbXbXbXbXbXbXbXbXbXbXbXbXbXbXZ !.bXbXbXbXbXbXbXbXbXbXbXbXbXbXbX",
"bXbXbXbXbXbXbXbXbXbXbXbXbXbXi t Y [ bXbXbXbXbXbXbXbXbXbXbXbXbXbX",
"bXbXbXbXbXbXbXbXbXbXbXbXN ; & y ~ R G E.bXbXbXbXbXbXbXbXbXbXbXbX",
"bXbXbXbXbXbXbXbXbXbXC k > 1 q i ^ Q R A H Q.bXbXbXbXbXbXbXbXbXbX",
"bXbXbXbXbXbXbXbXf.m . + h 7 ; p ^ ' R R D S R.bXbXbXbXbXbXbXbXbX",
"bXbXbXbXbXbXbXbXkXU.t.o X 7 ; r U ^ ~ R G W.~.xXbXbXbXbXbXbXbXbX",
"bXbXbXbXbXbXbXbXuXkXlXP.M   4 r U U ~ { `.XX XxXbXbXbXbXbXbXbXbX",
"bXbXbXbXbXbXbXbXuXqX4XlX3XC.x 2 P } /.>X#X}.}.vXbXbXbXbXbXbXbXbX",
"bXbXbXbXbXbXbXbXuXeXqX4X7XzX_.K L.:X-X=X[.oX}.XXbXbXbXbXbXbXbXbX",
"bXbXbXbXbXbXbXbXdXdXqX5X9X7X).V.V L.:X-X[.oX}.&XbXbXbXbXbXbXbXbX",
"bXbXbXbXbXbXbXbXdXaXeXhX2XK.N.n.> = J (.<X#XoX&XbXbXbXbXbXbXbXbX",
"bXbXbXbXbXbXbXbXfXdXT.I.A.d.B.n.c 2 * q ^ ].<X*XbXbXbXbXbXbXbXbX",
"bXbXbXbXbXbXbXbXdXY.h.g.l.D.B.m.d x 2 q % y | '.bXbXbXbXbXbXbXbX",
"bXbXbXbXbXbXbXbX8.z.c.c.j.D.G.i.b k 7 9 q % s bXbXbXbXbXbXbXbXbX",
"bXbXbXbXbXbXbXbX*.@.r.s.v.j.F.i.+ k : 2 B bXbXbXbXbXbXbXbXbXbXbX",
"bXbXbXbXbXbXbXbX*.*.@.<.r.j.H.d.# O n bXbXbXbXbXbXbXbXbXbXbXbXbX",
"bXbXbXbXbXbXbXbX*.*.;.#...1.a.d.# y.bXbXbXbXbXbXbXbXbXbXbXbXbXbX",
"bXbXbXbXbXbXbXbX8.5.O.@.#.,.:.e.bXbXbXbXbXbXbXbXbXbXbXbXbXbXbXbX",
"bXbXbXbXbXbXbXbXbXbX8.*.X.<.>.q.bXbXbXbXbXbXbXbXbXbXbXbXbXbXbXbX",
"bXbXbXbXbXbXbXbXbXbXbXbX6.#. .w.bXbXbXbXbXbXbXbXbXbXbXbXbXbXbXbX",
"bXbXbXbXbXbXbXbXbXbXbXbXbXbX4.2.bXbXbXbXbXbXbXbXbXbXbXbXbXbXbXbX",
"bXbXbXbXbXbXbXbXbXbXbXbXbXbXbXs.bXbXbXbXbXbXbXbXbXbXbXbXbXbXbXbX",
"bXbXbXbXbXbXbXbXbXbXbXbXbXbXbXbXbXbXbXbXbXbXbXbXbXbXbXbXbXbXbXbX",
"bXbXbXbXbXbXbXbXbXbXbXbXbXbXbXbXbXbXbXbXbXbXbXbXbXbXbXbXbXbXbXbX",
"bXbXbXbXbXbXbXbXbXbXbXbXbXbXbXbXbXbXbXbXbXbXbXbXbXbXbXbXbXbXbXbX",
"bXbXbXbXbXbXbXbXbXbXbXbXbXbXbXbXbXbXbXbXbXbXbXbXbXbXbXbXbXbXbXbX",
"bXbXbXbXbXbXbXbXbXbXbXbXbXbXbXbXbXbXbXbXbXbXbXbXbXbXbXbXbXbXbXbX"
};
