/* XPM */
static char *_552786132937[] = {
/* columns rows colors chars-per-pixel */
"16 16 60 1 ",
"  c #6A3FFB",
". c #5346FC",
"X c #5940FB",
"o c #5F41FB",
"O c #5946FB",
"+ c #5B43FC",
"@ c #554EFC",
"# c #4F52FD",
"$ c #5350FC",
"% c #6643FC",
"& c #6941FB",
"* c #7545FB",
"= c #6759FC",
"- c #6D5BFC",
"; c #5F75FE",
": c #5A7EFF",
"> c #6568FD",
", c #6D6DFD",
"< c #7660FC",
"1 c #6676FD",
"2 c #6871FE",
"3 c #6A77FE",
"4 c #8B28F9",
"5 c #9727F8",
"6 c #932BF9",
"7 c #883DFB",
"8 c #9A30F9",
"9 c #903CFB",
"0 c #9D39F9",
"q c #9344FB",
"w c #9E40F9",
"e c #9E4FFA",
"r c #9158FB",
"t c #8760FC",
"y c #8F61FC",
"u c #8C63FC",
"i c #8A6DFC",
"p c #9460FB",
"a c #9C62FB",
"s c #817AFD",
"d c #A76CFA",
"f c #BB7DFB",
"g c #6985FE",
"h c #728AFE",
"j c #7F9DFF",
"k c #8785FD",
"l c #8592FE",
"z c #869EFE",
"x c #8D9BFE",
"c c #8C9EFE",
"v c #9297FE",
"b c #929CFE",
"n c #A084FD",
"m c #A784FC",
"M c #AD82FC",
"N c #BA86FC",
"B c #B688FB",
"V c #B389FC",
"C c #B38FFC",
"Z c None",
/* pixels */
"ZZZZZZZZZZZZZZZZ",
"ZZZZZZZZZZZZZZZZ",
"ZZZZZZZZZZZZZZZZ",
"ZZZZZZ=#1gZZZZZZ",
"ZZZZZ X@2;:ZZZZZ",
"ZZZZMu%O,3hjZZZZ",
"ZZZZBCn<svxzZZZZ",
"ZZZZNVmi-kbcZZZZ",
"ZZZZNdrto.>lZZZZ",
"ZZZZ0eau&+$ZZZZZ",
"ZZZZ55qr*ZZZZZZZ",
"ZZZZZ847ZZZZZZZZ",
"ZZZZZZw9ZZZZZZZZ",
"ZZZZZZZZZZZZZZZZ",
"ZZZZZZZZZZZZZZZZ",
"ZZZZZZZZZZZZZZZZ"
};
