/* XPM */
static char *_552786164683[] = {
/* columns rows colors chars-per-pixel */
"64 64 142 2 ",
"   c #5E3FFC",
".  c #7C2FFA",
"X  c #6F36FA",
"o  c #653DFB",
"O  c #6C3DFB",
"+  c #7437FA",
"@  c #7E30FA",
"#  c #713CFA",
"$  c #7A3EFB",
"%  c #4D46FD",
"&  c #444BFD",
"*  c #4C4CFD",
"=  c #5445FB",
"-  c #5C45FB",
";  c #544AFC",
":  c #5848FB",
">  c #4654FD",
",  c #4D54FD",
"<  c #4C58FC",
"1  c #5354FD",
"2  c #5B52FC",
"3  c #535DFD",
"4  c #5F5BFD",
"5  c #6343FC",
"6  c #6941FC",
"7  c #634CFC",
"8  c #7446FB",
"9  c #7B45FB",
"0  c #774BFB",
"q  c #6351FC",
"w  c #6A5AFB",
"e  c #7256FC",
"r  c #7A54FC",
"t  c #755CFC",
"y  c #7E5FFC",
"u  c #5F64FE",
"i  c #5A68FE",
"p  c #5D76FE",
"a  c #547BFE",
"s  c #5D7AFE",
"d  c #6160FD",
"f  c #6E66FC",
"g  c #666EFE",
"h  c #6E6EFC",
"j  c #7167FC",
"k  c #7B64FD",
"l  c #756EFC",
"z  c #796DFD",
"x  c #6475FE",
"c  c #6B73FD",
"v  c #6178FE",
"b  c #6B7AFE",
"n  c #7271FD",
"m  c #7D7EFE",
"M  c #852DFA",
"N  c #8D2EFA",
"B  c #9727F8",
"V  c #942CF9",
"C  c #982CF8",
"Z  c #8433FA",
"A  c #8C31FA",
"S  c #8539FA",
"D  c #9434FA",
"F  c #9D34F9",
"G  c #913CFA",
"H  c #9D38F9",
"J  c #A13EF8",
"K  c #8541FA",
"L  c #9047FB",
"P  c #9C43FA",
"I  c #954EFB",
"U  c #9A4BFB",
"Y  c #8253FC",
"T  c #8C53FB",
"R  c #845DFB",
"E  c #8C5AFB",
"W  c #9150FB",
"Q  c #9A53FB",
"!  c #945FFC",
"~  c #9C5DFB",
"^  c #A445F9",
"/  c #A74EFA",
"(  c #A454FA",
")  c #A955FA",
"_  c #A25BFA",
"`  c #A85BFA",
"'  c #8566FC",
"]  c #8C65FC",
"[  c #8769FD",
"{  c #8A69FC",
"}  c #9462FC",
"|  c #9A61FB",
" . c #9B6BFC",
".. c #926CFC",
"X. c #8477FC",
"o. c #8A74FC",
"O. c #8278FC",
"+. c #8C7EFD",
"@. c #9872FC",
"#. c #947DFD",
"$. c #997CFC",
"%. c #A864FA",
"&. c #B068FA",
"*. c #A572FB",
"=. c #AD75FB",
"-. c #A37DFC",
";. c #B679FC",
":. c #BE7EFB",
">. c #5C82FE",
",. c #6D83FE",
"<. c #628AFF",
"1. c #6E8BFE",
"2. c #7788FE",
"3. c #7091FE",
"4. c #7D9DFF",
"5. c #8184FE",
"6. c #8A82FC",
"7. c #838CFE",
"8. c #8F8BFE",
"9. c #928CFC",
"0. c #9E8DFD",
"q. c #8295FE",
"w. c #8E97FE",
"e. c #849BFE",
"r. c #8B9AFE",
"t. c #9295FE",
"y. c #9B96FE",
"u. c #939AFE",
"i. c #9999FE",
"p. c #A185FC",
"a. c #AB83FD",
"s. c #A58CFD",
"d. c #AC8AFD",
"f. c #B486FB",
"g. c #BA84FC",
"h. c #B289FC",
"j. c #A592FD",
"k. c #AB91FD",
"l. c #85A2FF",
"z. c #89A0FE",
"x. c #C083FB",
"c. c None",
/* pixels */
"c.c.c.c.c.c.c.c.c.c.c.c.c.c.c.c.c.c.c.c.c.c.c.c.c.c.c.c.c.c.c.c.c.c.c.c.c.c.c.c.c.c.c.c.c.c.c.c.c.c.c.c.c.c.c.c.c.c.c.c.c.c.c.c.",
"c.c.c.c.c.c.c.c.c.c.c.c.c.c.c.c.c.c.c.c.c.c.c.c.c.c.c.c.c.c.c.c.c.c.c.c.c.c.c.c.c.c.c.c.c.c.c.c.c.c.c.c.c.c.c.c.c.c.c.c.c.c.c.c.",
"c.c.c.c.c.c.c.c.c.c.c.c.c.c.c.c.c.c.c.c.c.c.c.c.c.c.c.c.c.c.c.c.c.c.c.c.c.c.c.c.c.c.c.c.c.c.c.c.c.c.c.c.c.c.c.c.c.c.c.c.c.c.c.c.",
"c.c.c.c.c.c.c.c.c.c.c.c.c.c.c.c.c.c.c.c.c.c.c.c.c.c.c.c.c.c.c.c.c.c.c.c.c.c.c.c.c.c.c.c.c.c.c.c.c.c.c.c.c.c.c.c.c.c.c.c.c.c.c.c.",
"c.c.c.c.c.c.c.c.c.c.c.c.c.c.c.c.c.c.c.c.c.c.c.c.c.c.c.c.c.c.c.c.c.c.c.c.c.c.c.c.c.c.c.c.c.c.c.c.c.c.c.c.c.c.c.c.c.c.c.c.c.c.c.c.",
"c.c.c.c.c.c.c.c.c.c.c.c.c.c.c.c.c.c.c.c.c.c.c.c.c.c.c.c.c.c.c.c.c.c.c.c.c.c.c.c.c.c.c.c.c.c.c.c.c.c.c.c.c.c.c.c.c.c.c.c.c.c.c.c.",
"c.c.c.c.c.c.c.c.c.c.c.c.c.c.c.c.c.c.c.c.c.c.c.c.c.c.c.c.c.c.c.c.c.c.c.c.c.c.c.c.c.c.c.c.c.c.c.c.c.c.c.c.c.c.c.c.c.c.c.c.c.c.c.c.",
"c.c.c.c.c.c.c.c.c.c.c.c.c.c.c.c.c.c.c.c.c.c.c.c.c.c.c.c.c.c.c.c.c.c.c.c.c.c.c.c.c.c.c.c.c.c.c.c.c.c.c.c.c.c.c.c.c.c.c.c.c.c.c.c.",
"c.c.c.c.c.c.c.c.c.c.c.c.c.c.c.c.c.c.c.c.c.c.c.c.c.c.c.c.c.c.c.c.c.c.c.c.c.c.c.c.c.c.c.c.c.c.c.c.c.c.c.c.c.c.c.c.c.c.c.c.c.c.c.c.",
"c.c.c.c.c.c.c.c.c.c.c.c.c.c.c.c.c.c.c.c.c.c.c.c.c.c.c.c.c.c.c.c.c.c.c.c.c.c.c.c.c.c.c.c.c.c.c.c.c.c.c.c.c.c.c.c.c.c.c.c.c.c.c.c.",
"c.c.c.c.c.c.c.c.c.c.c.c.c.c.c.c.c.c.c.c.c.c.c.c.c.c.c.c.c.c.c.i c.c.c.c.c.c.c.c.c.c.c.c.c.c.c.c.c.c.c.c.c.c.c.c.c.c.c.c.c.c.c.c.",
"c.c.c.c.c.c.c.c.c.c.c.c.c.c.c.c.c.c.c.c.c.c.c.c.c.c.c.c.c.c.3 < b 2.c.c.c.c.c.c.c.c.c.c.c.c.c.c.c.c.c.c.c.c.c.c.c.c.c.c.c.c.c.c.",
"c.c.c.c.c.c.c.c.c.c.c.c.c.c.c.c.c.c.c.c.c.c.c.c.c.c.c.c.4 , & < x x b c.c.c.c.c.c.c.c.c.c.c.c.c.c.c.c.c.c.c.c.c.c.c.c.c.c.c.c.c.",
"c.c.c.c.c.c.c.c.c.c.c.c.c.c.c.c.c.c.c.c.c.c.c.c.c.c.j 1 * * & < x x v v ,.c.c.c.c.c.c.c.c.c.c.c.c.c.c.c.c.c.c.c.c.c.c.c.c.c.c.c.",
"c.c.c.c.c.c.c.c.c.c.c.c.c.c.c.c.c.c.c.c.c.c.c.c.c.q = = ; , * , c x x x p s 1.c.c.c.c.c.c.c.c.c.c.c.c.c.c.c.c.c.c.c.c.c.c.c.c.c.",
"c.c.c.c.c.c.c.c.c.c.c.c.c.c.c.c.c.c.c.c.c.c.c.e - - : ; ; * * 1 c c x x v v p s 1.c.c.c.c.c.c.c.c.c.c.c.c.c.c.c.c.c.c.c.c.c.c.c.",
"c.c.c.c.c.c.c.c.c.c.c.c.c.c.c.c.c.c.c.c.c.r 6 5 - - - ; ; ; * 1 c c x c x v v a a >.c.c.c.c.c.c.c.c.c.c.c.c.c.c.c.c.c.c.c.c.c.c.",
"c.c.c.c.c.c.c.c.c.c.c.c.c.c.c.c.c.c.c.c.8 o 6 5 5 7 - : ; ; ; 1 c c c x x v v s a a >.>.c.c.c.c.c.c.c.c.c.c.c.c.c.c.c.c.c.c.c.c.",
"c.c.c.c.c.c.c.c.c.c.c.c.c.c.c.c.c.c.9 # O O 6 6 5 5 - : ; ; ; 1 n c c x x x v v s s a a >.>.c.c.c.c.c.c.c.c.c.c.c.c.c.c.c.c.c.c.",
"c.c.c.c.c.c.c.c.c.c.c.c.c.c.c.c.c. .$ X # O 6 6 5 5 5 - : : ; 1 n c c c c x x v v a a >.>.>.4.c.c.c.c.c.c.c.c.c.c.c.c.c.c.c.c.c.",
"c.c.c.c.c.c.c.c.c.c.c.c.c.c.c.c.c.h.a.} # X O 6 6 5 5 - - : = 2 n n c c c x v v v a a v 3.4.l.c.c.c.c.c.c.c.c.c.c.c.c.c.c.c.c.c.",
"c.c.c.c.c.c.c.c.c.c.c.c.c.c.c.c.c.h.h.h.-.Y X o 6 6 5 - - : = 2 l n c c c x x x p v 2.e.e.4.l.c.c.c.c.c.c.c.c.c.c.c.c.c.c.c.c.c.",
"c.c.c.c.c.c.c.c.c.c.c.c.c.c.c.c.c.h.h.d.h.d.@.0 o o 5 5 5 : = 2 l n l c c x x v ,.e.l.e.4.4.l.c.c.c.c.c.c.c.c.c.c.c.c.c.c.c.c.c.",
"c.c.c.c.c.c.c.c.c.c.c.c.c.c.c.c.c.f.h.h.d.d.k.d.{ 6 o 5 7 - - 2 l l n l h c b 7.r.r.e.e.e.e.z.c.c.c.c.c.c.c.c.c.c.c.c.c.c.c.c.c.",
"c.c.c.c.c.c.c.c.c.c.c.c.c.c.c.c.c.f.f.h.d.d.d.d.d.0.y o   - - q z l l h n 5.w.r.w.e.r.e.e.e.l.c.c.c.c.c.c.c.c.c.c.c.c.c.c.c.c.c.",
"c.c.c.c.c.c.c.c.c.c.c.c.c.c.c.c.c.f.f.h.h.h.d.d.d.k.k.#.e -   : z l l 5.t.u.t.u.r.w.e.r.e.e.l.c.c.c.c.c.c.c.c.c.c.c.c.c.c.c.c.c.",
"c.c.c.c.c.c.c.c.c.c.c.c.c.c.c.c.c.g.f.f.f.d.d.d.d.s.s.k.j.o.7 - z m 9.y.t.t.t.r.w.r.w.e.e.e.e.c.c.c.c.c.c.c.c.c.c.c.c.c.c.c.c.c.",
"c.c.c.c.c.c.c.c.c.c.c.c.c.c.c.c.c.g.f.f.f.a.h.d.d.d.s.s.s.j.j.k +.j.y.9.t.t.t.t.w.r.w.r.e.e.z.c.c.c.c.c.c.c.c.c.c.c.c.c.c.c.c.c.",
"c.c.c.c.c.c.c.c.c.c.c.c.c.c.c.c.c.g.f.f.f.h.d.h.d.d.s.d.j.0.#.k 7 X.y.y.y.t.t.t.w.w.r.r.r.r.z.c.c.c.c.c.c.c.c.c.c.c.c.c.c.c.c.c.",
"c.c.c.c.c.c.c.c.c.c.c.c.c.c.c.c.c.g.g.f.f.h.f.d.d.d.d.d.$.[ ' k - - w 6.y.t.t.t.w.w.r.w.e.r.z.c.c.c.c.c.c.c.c.c.c.c.c.c.c.c.c.c.",
"c.c.c.c.c.c.c.c.c.c.c.c.c.c.c.c.c.g.g.f.f.f.f.d.d.h.p...] ' [ k 5 - - = f 9.i.t.t.u.w.w.r.e.z.c.c.c.c.c.c.c.c.c.c.c.c.c.c.c.c.c.",
"c.c.c.c.c.c.c.c.c.c.c.c.c.c.c.c.c.g.g.g.g.f.f.h.a. .E ] ] ' [ y 5 - - ; = ; z t.u.t.w.r.w.w.z.c.c.c.c.c.c.c.c.c.c.c.c.c.c.c.c.c.",
"c.c.c.c.c.c.c.c.c.c.c.c.c.c.c.c.c.g.g.g.g.f.f.*.| E } ] ] ' ] y 5 5 - - : ; % 2 m u.u.w.w.r.z.c.c.c.c.c.c.c.c.c.c.c.c.c.c.c.c.c.",
"c.c.c.c.c.c.c.c.c.c.c.c.c.c.c.c.c.x.g.g.f.=.~ ~ | } } ] ] ] ] k 6 5 5 - : : ; * * d 7.u.r.w.u.c.c.c.c.c.c.c.c.c.c.c.c.c.c.c.c.c.",
"c.c.c.c.c.c.c.c.c.c.c.c.c.c.c.c.c.x.x.;.%.~ ~ ~ ! } } } } ] ] R 5 5 5 - : : : ; * & * g w.r.u.c.c.c.c.c.c.c.c.c.c.c.c.c.c.c.c.c.",
"c.c.c.c.c.c.c.c.c.c.c.c.c.c.c.c.c.:.&._ ( ( _ ~ ~ | } } } ] ] R o 5 5 5 - : : ; ; * * & , c r.c.c.c.c.c.c.c.c.c.c.c.c.c.c.c.c.c.",
"c.c.c.c.c.c.c.c.c.c.c.c.c.c.c.c.c./ ) ) _ _ _ ~ ~ ~ } } } ] ] R 6 6 5 5 - : : ; ; * * * & > c.c.c.c.c.c.c.c.c.c.c.c.c.c.c.c.c.c.",
"c.c.c.c.c.c.c.c.c.c.c.c.c.c.c.c.c.C H ) _ _ _ _ ~ ~ | } } } } ' O 6 5 5 5 - : : ; ; * , u c.c.c.c.c.c.c.c.c.c.c.c.c.c.c.c.c.c.c.",
"c.c.c.c.c.c.c.c.c.c.c.c.c.c.c.c.c.C B V P ( _ _ ~ ~ ~ } } } } R O 6 6 6 5 - - : ; ; 4 c.c.c.c.c.c.c.c.c.c.c.c.c.c.c.c.c.c.c.c.c.",
"c.c.c.c.c.c.c.c.c.c.c.c.c.c.c.c.c.C C C V D P ~ %.~ ~ ~ } } } E # O o 5 6 5 - - q c.c.c.c.c.c.c.c.c.c.c.c.c.c.c.c.c.c.c.c.c.c.c.",
"c.c.c.c.c.c.c.c.c.c.c.c.c.c.c.c.c.C C C V V N G Q _ ~ | | } } E # 6 8 o 6 - 7 t c.c.c.c.c.c.c.c.c.c.c.c.c.c.c.c.c.c.c.c.c.c.c.c.",
"c.c.c.c.c.c.c.c.c.c.c.c.c.c.c.c.c.C C C C V V N A G Q | | | } E # # # o 6 t c.c.c.c.c.c.c.c.c.c.c.c.c.c.c.c.c.c.c.c.c.c.c.c.c.c.",
"c.c.c.c.c.c.c.c.c.c.c.c.c.c.c.c.c.C C C C V V A A Z A L ~ ~ } E + O # r c.c.c.c.c.c.c.c.c.c.c.c.c.c.c.c.c.c.c.c.c.c.c.c.c.c.c.c.",
"c.c.c.c.c.c.c.c.c.c.c.c.c.c.c.c.c.C C C C V V V V A Z Z S T | E + 9 c.c.c.c.c.c.c.c.c.c.c.c.c.c.c.c.c.c.c.c.c.c.c.c.c.c.c.c.c.c.",
"c.c.c.c.c.c.c.c.c.c.c.c.c.c.c.c.c.C B C C C C V D N A Z Z @ S T T c.c.c.c.c.c.c.c.c.c.c.c.c.c.c.c.c.c.c.c.c.c.c.c.c.c.c.c.c.c.c.",
"c.c.c.c.c.c.c.c.c.c.c.c.c.c.c.c.c.c.H C C C C V V A A A S Z @ T c.c.c.c.c.c.c.c.c.c.c.c.c.c.c.c.c.c.c.c.c.c.c.c.c.c.c.c.c.c.c.c.",
"c.c.c.c.c.c.c.c.c.c.c.c.c.c.c.c.c.c.c.c.F B C C V D A A A Z @ T c.c.c.c.c.c.c.c.c.c.c.c.c.c.c.c.c.c.c.c.c.c.c.c.c.c.c.c.c.c.c.c.",
"c.c.c.c.c.c.c.c.c.c.c.c.c.c.c.c.c.c.c.c.c.^ V B V V D A A Z M T c.c.c.c.c.c.c.c.c.c.c.c.c.c.c.c.c.c.c.c.c.c.c.c.c.c.c.c.c.c.c.c.",
"c.c.c.c.c.c.c.c.c.c.c.c.c.c.c.c.c.c.c.c.c.c.c.^ C V V N A A Z W c.c.c.c.c.c.c.c.c.c.c.c.c.c.c.c.c.c.c.c.c.c.c.c.c.c.c.c.c.c.c.c.",
"c.c.c.c.c.c.c.c.c.c.c.c.c.c.c.c.c.c.c.c.c.c.c.c.c.H V N A A M I c.c.c.c.c.c.c.c.c.c.c.c.c.c.c.c.c.c.c.c.c.c.c.c.c.c.c.c.c.c.c.c.",
"c.c.c.c.c.c.c.c.c.c.c.c.c.c.c.c.c.c.c.c.c.c.c.c.c.c./ D V A M I c.c.c.c.c.c.c.c.c.c.c.c.c.c.c.c.c.c.c.c.c.c.c.c.c.c.c.c.c.c.c.c.",
"c.c.c.c.c.c.c.c.c.c.c.c.c.c.c.c.c.c.c.c.c.c.c.c.c.c.c.c.P A M Q c.c.c.c.c.c.c.c.c.c.c.c.c.c.c.c.c.c.c.c.c.c.c.c.c.c.c.c.c.c.c.c.",
"c.c.c.c.c.c.c.c.c.c.c.c.c.c.c.c.c.c.c.c.c.c.c.c.c.c.c.c.c.c.G U c.c.c.c.c.c.c.c.c.c.c.c.c.c.c.c.c.c.c.c.c.c.c.c.c.c.c.c.c.c.c.c.",
"c.c.c.c.c.c.c.c.c.c.c.c.c.c.c.c.c.c.c.c.c.c.c.c.c.c.c.c.c.c.c.c.c.c.c.c.c.c.c.c.c.c.c.c.c.c.c.c.c.c.c.c.c.c.c.c.c.c.c.c.c.c.c.c.",
"c.c.c.c.c.c.c.c.c.c.c.c.c.c.c.c.c.c.c.c.c.c.c.c.c.c.c.c.c.c.c.c.c.c.c.c.c.c.c.c.c.c.c.c.c.c.c.c.c.c.c.c.c.c.c.c.c.c.c.c.c.c.c.c.",
"c.c.c.c.c.c.c.c.c.c.c.c.c.c.c.c.c.c.c.c.c.c.c.c.c.c.c.c.c.c.c.c.c.c.c.c.c.c.c.c.c.c.c.c.c.c.c.c.c.c.c.c.c.c.c.c.c.c.c.c.c.c.c.c.",
"c.c.c.c.c.c.c.c.c.c.c.c.c.c.c.c.c.c.c.c.c.c.c.c.c.c.c.c.c.c.c.c.c.c.c.c.c.c.c.c.c.c.c.c.c.c.c.c.c.c.c.c.c.c.c.c.c.c.c.c.c.c.c.c.",
"c.c.c.c.c.c.c.c.c.c.c.c.c.c.c.c.c.c.c.c.c.c.c.c.c.c.c.c.c.c.c.c.c.c.c.c.c.c.c.c.c.c.c.c.c.c.c.c.c.c.c.c.c.c.c.c.c.c.c.c.c.c.c.c.",
"c.c.c.c.c.c.c.c.c.c.c.c.c.c.c.c.c.c.c.c.c.c.c.c.c.c.c.c.c.c.c.c.c.c.c.c.c.c.c.c.c.c.c.c.c.c.c.c.c.c.c.c.c.c.c.c.c.c.c.c.c.c.c.c.",
"c.c.c.c.c.c.c.c.c.c.c.c.c.c.c.c.c.c.c.c.c.c.c.c.c.c.c.c.c.c.c.c.c.c.c.c.c.c.c.c.c.c.c.c.c.c.c.c.c.c.c.c.c.c.c.c.c.c.c.c.c.c.c.c.",
"c.c.c.c.c.c.c.c.c.c.c.c.c.c.c.c.c.c.c.c.c.c.c.c.c.c.c.c.c.c.c.c.c.c.c.c.c.c.c.c.c.c.c.c.c.c.c.c.c.c.c.c.c.c.c.c.c.c.c.c.c.c.c.c.",
"c.c.c.c.c.c.c.c.c.c.c.c.c.c.c.c.c.c.c.c.c.c.c.c.c.c.c.c.c.c.c.c.c.c.c.c.c.c.c.c.c.c.c.c.c.c.c.c.c.c.c.c.c.c.c.c.c.c.c.c.c.c.c.c.",
"c.c.c.c.c.c.c.c.c.c.c.c.c.c.c.c.c.c.c.c.c.c.c.c.c.c.c.c.c.c.c.c.c.c.c.c.c.c.c.c.c.c.c.c.c.c.c.c.c.c.c.c.c.c.c.c.c.c.c.c.c.c.c.c.",
"c.c.c.c.c.c.c.c.c.c.c.c.c.c.c.c.c.c.c.c.c.c.c.c.c.c.c.c.c.c.c.c.c.c.c.c.c.c.c.c.c.c.c.c.c.c.c.c.c.c.c.c.c.c.c.c.c.c.c.c.c.c.c.c."
};
